# Blender 4.0.2
# www.blender.org
mtllib ceiling.mtl
o ceiling
v 1.710207 2.900320 4.273159
v 1.710207 3.200320 4.273159
v 1.710207 2.900320 -2.366841
v 1.710207 3.200320 -2.366841
v 5.870207 2.900320 4.273159
v 5.870207 3.200320 4.273159
v 5.870207 2.900320 -2.366841
v 5.870207 3.200320 -2.366841
vn -1.0000 -0.0000 -0.0000
vn -0.0000 -0.0000 -1.0000
vn 1.0000 -0.0000 -0.0000
vn -0.0000 -0.0000 1.0000
vn -0.0000 -1.0000 -0.0000
vn -0.0000 1.0000 -0.0000
vt -1.094751 -5.879004
vt 2.094751 -5.879004
vt 2.094751 -2.689502
vt -1.094751 -2.689502
vt 2.094751 0.500000
vt -1.094751 0.500000
vt 2.094751 3.689502
vt -1.094751 3.689502
vt 2.094751 6.879004
vt -1.094751 6.879004
vt -4.284254 0.500000
vt -4.284254 3.689502
vt 5.284253 0.500000
vt 5.284253 3.689502
s 0
usemtl Material.009
f 1/1/1 2/2/1 4/3/1 3/4/1
f 3/4/2 4/3/2 8/5/2 7/6/2
f 7/6/3 8/5/3 6/7/3 5/8/3
f 5/8/4 6/7/4 2/9/4 1/10/4
f 3/11/5 7/6/5 5/8/5 1/12/5
f 8/5/6 4/13/6 2/14/6 6/7/6
