# Blender 4.0.2
# www.blender.org
mtllib pole2.mtl
o pole1
v 3.159081 0.075739 1.971377
v 3.157420 0.075739 1.963028
v 3.152692 0.075739 1.955951
v 3.145613 0.075739 1.951221
v 3.137266 0.075739 1.949562
v 3.128917 0.075739 1.951221
v 3.121840 0.075739 1.955951
v 3.117110 0.075739 1.963028
v 3.115450 0.075739 1.971377
v 3.117110 0.075739 1.979725
v 3.121840 0.075739 1.986803
v 3.128917 0.075739 1.991532
v 3.137266 0.075739 1.993193
v 3.145613 0.075739 1.991532
v 3.152692 0.075739 1.986803
v 3.157420 0.075739 1.979725
v 3.156596 2.961876 1.960775
v 3.117110 2.961876 1.963028
v 3.159081 2.961876 1.971377
v 3.121840 2.961876 1.986803
v 3.157420 2.961876 1.979725
v 3.140800 2.961876 1.949489
v 3.124289 2.961876 1.953400
v 3.116472 2.961876 1.978382
v 3.135780 2.961876 1.993269
v 3.151696 2.961876 1.987906
v 3.141894 2.935722 1.971819
v 3.135159 2.936111 1.978735
v 3.154704 2.941876 1.971819
v 3.149279 2.940059 1.980906
v 3.142682 2.941876 1.989105
v 3.132732 2.940059 1.986523
v 3.123228 2.941876 1.982501
v 3.135158 2.936111 1.964902
v 3.122505 2.940059 1.971819
v 3.123228 2.941876 1.961135
v 3.132732 2.940059 1.957113
v 3.142682 2.941876 1.954531
v 3.149279 2.940059 1.962730
vn 0.6100 -0.5207 -0.5973
vn 0.7209 0.4923 -0.4877
vn 0.7883 -0.5217 -0.3264
vn -0.8531 -0.5217 -0.0000
vn -0.8149 0.5022 -0.2894
vn -0.7882 -0.5216 -0.3265
vn -0.6033 -0.5216 0.6033
vn -0.8355 0.5013 0.2251
vn -0.7882 -0.5216 0.3265
vn 0.3264 -0.5217 0.7882
vn -0.0477 0.4886 0.8712
vn 0.0001 -0.5216 0.8532
vn 0.7882 -0.5216 0.3265
vn 0.5196 0.4990 0.6936
vn 0.6033 -0.5216 0.6032
vn 0.8551 0.5183 -0.0144
vn 0.8532 -0.5216 -0.0000
vn -0.3265 -0.5217 0.7882
vn -0.5685 0.5049 0.6495
vn -0.0105 -0.5226 -0.8525
vn 0.1939 0.0005 -0.9810
vn 0.3351 -0.5224 -0.7841
vn -0.6033 -0.5217 -0.6032
vn -0.4730 0.4944 -0.7293
vn -0.3360 -0.5207 -0.7848
vn 0.7859 0.5195 0.3355
vn 0.2477 -0.9684 0.0305
vn 0.5008 -0.8656 -0.0000
vn 0.3480 -0.8998 0.2632
vn -0.1092 -0.9532 0.2820
vn 0.1652 -0.8621 0.4790
vn -0.1527 -0.8684 0.4717
vn -0.4148 -0.8626 0.2895
vn -0.1092 -0.9532 -0.2819
vn -0.4132 -0.9107 -0.0000
vn -0.4149 -0.8626 -0.2895
vn -0.1527 -0.8684 -0.4717
vn 0.1652 -0.8621 -0.4790
vn 0.3480 -0.8998 -0.2632
vn -0.0000 1.0000 -0.0000
vt 7.957000 0.000001
vt 7.544294 131.219803
vt 7.388600 0.000001
vt 2.273400 0.000001
vt 1.705100 131.219803
vt 1.705100 0.000001
vt 3.410100 0.000001
vt 2.745562 131.219803
vt 2.841800 0.000001
vt 5.115200 0.000001
vt 4.450515 131.219803
vt 4.546800 0.000001
vt 6.251900 0.000001
vt 5.587378 131.219803
vt 5.683599 0.000001
vt 6.820300 131.219803
vt 6.820300 0.000001
vt 3.978500 0.000001
vt 3.410100 131.219803
vt 9.093699 0.000001
vt 8.863165 131.219803
vt 8.525299 0.000001
vt 1.136700 0.000001
vt 0.906118 131.219803
vt 0.568400 0.000001
vt 0.000000 0.000001
vt -1.136700 0.000000
vt -1.705100 0.000000
vt -2.273400 0.000000
vt -2.841800 0.000000
vt 11.839262 131.219803
vt 13.544214 131.219803
vt 10.798800 131.219803
vt 12.503800 131.219803
vt 14.680995 131.219803
vt 15.345600 131.219803
vt 15.914000 131.219803
vt 4.101568 4.355700
vt 4.556700 3.753800
vt 5.468000 3.884200
vt 7.291368 4.155200
vt 6.379300 3.753800
vt 7.290700 3.884200
vt 8.202000 3.753800
vt 0.000000 4.556700
vt -0.911300 4.155200
vt 1.821700 4.155200
vt -0.911300 3.753800
vt 0.000000 3.884200
vt 0.911300 3.753800
vt 1.822700 3.884200
vt 2.734000 3.753800
vt 3.645300 3.884200
vt 6.251900 131.219803
vt 0.000000 131.219803
vt -0.568400 0.000000
vt 9.999778 131.219803
s 1
usemtl Material.008
f 3/1/1 17/2/2 2/3/3
f 9/4/4 18/5/5 8/6/6
f 11/7/7 24/8/8 10/9/9
f 14/10/10 25/11/11 13/12/12
f 16/13/13 26/14/14 15/15/15
f 17/2/2 19/16/16 1/17/17
f 12/18/18 20/19/19 11/7/7
f 5/20/20 22/21/21 4/22/22
f 7/23/23 23/24/24 6/25/25
f 18/5/5 23/24/24 7/23/23
f 11/7/7 10/9/9 9/4/4
f 7/23/23 6/25/25 5/26/20
f 3/27/1 2/28/3 1/29/17
f 16/30/13 15/15/15 1/29/17
f 24/31/8 25/32/11 18/33/5
f 24/31/8 20/34/19 25/32/11
f 25/32/11 26/35/14 21/36/26
f 19/37/16 17/2/2 21/36/26
f 27/38/27 29/39/28 30/40/29
f 27/38/27 30/40/29 28/41/30
f 28/41/30 30/40/29 31/42/31
f 28/41/30 31/42/31 32/43/32
f 28/41/30 32/43/32 33/44/33
f 27/45/27 28/46/30 34/47/34
f 28/46/30 33/48/33 35/49/35
f 28/46/30 35/49/35 34/47/34
f 34/47/34 35/49/35 36/50/36
f 34/47/34 36/50/36 37/51/37
f 34/47/34 37/51/37 38/52/38
f 34/47/34 38/52/38 39/53/39
f 34/47/34 39/53/39 27/38/27
f 27/38/27 39/53/39 29/39/28
f 2/3/3 17/2/2 1/17/17
f 8/6/6 18/5/5 7/23/23
f 10/9/9 24/8/8 9/4/4
f 13/12/12 25/11/11 12/18/18
f 15/15/15 26/14/14 14/10/10
f 11/7/7 20/19/19 24/8/8
f 16/13/13 21/54/26 26/14/14
f 17/2/2 3/1/1 4/22/22 22/21/21
f 21/54/26 16/13/13 1/17/17 19/16/16
f 22/55/21 5/26/20 6/25/25 23/24/24
f 1/29/17 15/15/15 14/10/10 13/12/12
f 9/4/4 24/8/8 18/5/5
f 12/18/18 25/11/11 20/19/19
f 14/10/10 26/14/14 25/11/11
f 9/4/4 13/12/12 12/18/18 11/7/7
f 7/23/23 5/26/20 9/4/4 8/6/6
f 3/27/1 1/29/17 5/26/20 4/56/22
f 13/12/12 9/4/4 5/26/20 1/29/17
f 22/21/40 18/33/5 25/32/11 21/36/26
f 17/2/2 22/21/40 21/36/26
f 22/21/40 23/57/24 18/33/5
