# Blender 4.0.2
# www.blender.org
mtllib couch_legs1.mtl
o couch1-legs
v 4.914190 0.058633 0.424355
v 4.914190 0.066289 0.432011
v 4.906534 0.066289 0.424355
v 4.906534 0.145637 0.424355
v 4.914190 0.145637 0.432011
v 4.914190 0.058633 0.352664
v 4.906534 0.066289 0.352664
v 4.914190 0.066289 0.345007
v 4.914190 0.145637 0.345007
v 4.906534 0.145637 0.352664
v 4.985882 0.058633 0.424355
v 4.993538 0.066289 0.424355
v 4.985882 0.066289 0.432011
v 4.985882 0.145637 0.432011
v 4.993538 0.145637 0.424355
v 4.985882 0.058633 0.352664
v 4.985882 0.066289 0.345007
v 4.993538 0.066289 0.352664
v 4.993538 0.145637 0.352664
v 4.985882 0.145637 0.345007
v 5.565460 0.058633 0.399112
v 5.565460 0.066289 0.406768
v 5.557804 0.066289 0.399112
v 5.557804 0.145637 0.399112
v 5.565460 0.145637 0.406768
v 5.565460 0.058633 0.327420
v 5.557804 0.066289 0.327420
v 5.565460 0.066289 0.319764
v 5.565460 0.145637 0.319764
v 5.557804 0.145637 0.327420
v 5.637152 0.058633 0.399112
v 5.644808 0.066289 0.399112
v 5.637152 0.066289 0.406768
v 5.637152 0.145637 0.406768
v 5.644808 0.145637 0.399112
v 5.637152 0.058633 0.327420
v 5.637152 0.066289 0.319764
v 5.644808 0.066289 0.327420
v 5.644808 0.145637 0.327420
v 5.637152 0.145637 0.319764
v 4.914190 0.058633 -1.819776
v 4.906534 0.066289 -1.819776
v 4.914190 0.066289 -1.827433
v 4.914190 0.145637 -1.827433
v 4.906534 0.145637 -1.819776
v 4.914190 0.058633 -1.748085
v 4.914190 0.066289 -1.740428
v 4.906534 0.066289 -1.748085
v 4.906534 0.145637 -1.748085
v 4.914190 0.145637 -1.740428
v 4.985882 0.058633 -1.819776
v 4.985882 0.066289 -1.827433
v 4.993538 0.066289 -1.819776
v 4.993538 0.145637 -1.819776
v 4.985882 0.145637 -1.827433
v 4.985882 0.058633 -1.748085
v 4.993538 0.066289 -1.748085
v 4.985882 0.066289 -1.740428
v 4.985882 0.145637 -1.740428
v 4.993538 0.145637 -1.748085
v 5.565460 0.058633 -1.794533
v 5.557804 0.066289 -1.794533
v 5.565460 0.066289 -1.802189
v 5.565460 0.145637 -1.802189
v 5.557804 0.145637 -1.794533
v 5.565460 0.058633 -1.722841
v 5.565460 0.066289 -1.715185
v 5.557804 0.066289 -1.722841
v 5.557804 0.145637 -1.722841
v 5.565460 0.145637 -1.715185
v 5.637152 0.058633 -1.794533
v 5.637152 0.066289 -1.802189
v 5.644808 0.066289 -1.794533
v 5.644808 0.145637 -1.794533
v 5.637152 0.145637 -1.802189
v 5.637152 0.058633 -1.722841
v 5.644808 0.066289 -1.722841
v 5.637152 0.066289 -1.715185
v 5.637152 0.145637 -1.715185
v 5.644808 0.145637 -1.722841
vn 0.4033 -0.3397 0.8497
vn 0.4381 -0.0000 0.8989
vn -0.4381 -0.0000 0.8989
vn -0.4033 -0.3397 0.8497
vn 0.9540 -0.2119 -0.2119
vn 0.9730 -0.0000 -0.2307
vn 0.9730 -0.0000 0.2307
vn 0.9540 -0.2119 0.2119
vn -0.4033 -0.8497 -0.3397
vn 0.4033 -0.8497 -0.3397
vn 0.4033 -0.8497 0.3396
vn -0.4033 -0.8497 0.3396
vn -0.4033 -0.3397 -0.8497
vn -0.4381 -0.0000 -0.8989
vn 0.4381 -0.0000 -0.8989
vn 0.4033 -0.3397 -0.8497
vn -0.9540 -0.2119 0.2119
vn -0.9730 -0.0000 0.2307
vn -0.9730 -0.0000 -0.2307
vn -0.9540 -0.2119 -0.2119
vn -0.4033 -0.8497 -0.3396
vn 0.4033 -0.8497 -0.3396
vn -0.4033 -0.3396 -0.8497
vn 0.4033 -0.3396 -0.8497
vn -0.4033 -0.8497 0.3397
vn 0.4033 -0.8497 0.3397
vt -0.225387 2.174350
vt 0.709661 2.174350
vt 0.709661 2.989486
vt -0.225387 2.989486
vt -0.443206 -0.326442
vt -1.104384 -0.326442
vt -1.104384 -1.141575
vt -0.443206 -1.141575
vt 1.644711 1.162706
vt 1.644711 1.739098
vt 0.799887 1.739098
vt 0.799887 1.162706
vt -1.250660 0.662801
vt -1.250660 -0.239387
vt -0.405834 -0.239387
vt -0.405834 0.662801
vt 0.799886 2.377035
vt 0.799886 1.739098
vt 1.644709 1.739098
vt 1.644709 2.377035
vt 1.825159 -0.500535
vt 2.760208 -0.500535
vt 2.760208 0.314601
vt 1.825159 0.314601
vt 1.607338 0.314599
vt 0.946160 0.314599
vt 0.946160 -0.500533
vt 1.607338 -0.500533
vt 1.825160 2.500152
vt 2.669986 2.500152
vt 2.669986 3.076540
vt 1.825160 3.076540
vt -0.225385 -0.152333
vt 0.709663 -0.152333
vt 0.709663 0.662801
vt -0.225385 0.662801
vt 0.799887 1.039596
vt 0.799887 0.401655
vt 1.644711 0.401655
vt 1.644711 1.039596
vt 0.619441 -0.326440
vt -0.225385 -0.326440
vt -0.225384 -1.228630
vt 0.619441 -1.228630
vt -1.231979 -1.141575
vt -1.231979 -0.326442
vt -1.893160 -0.326442
vt -1.893160 -1.141575
vt 1.825160 1.162706
vt 2.669986 1.162706
vt 2.669986 1.739098
vt 1.825160 1.739098
vt -0.225385 1.652044
vt -0.225385 0.836910
vt 0.709663 0.836910
vt 0.709664 1.652044
vt 2.669986 2.377035
vt 1.825160 2.377035
vt -1.250660 1.652044
vt -1.250660 0.836910
vt -0.315609 0.836910
vt -0.315609 1.652044
vt 2.632613 -1.489775
vt 2.632613 -0.674644
vt 1.971433 -0.674644
vt 1.971435 -1.489775
vt -1.250660 2.989486
vt -1.250660 2.174350
vt -0.315611 2.174350
vt -0.315611 2.989486
vt 2.669986 1.039596
vt 1.825160 1.039596
vt 1.825160 0.401655
vt 2.669986 0.401655
vt 0.799886 2.500152
vt 0.709661 2.438593
vt 1.644709 2.500152
vt 1.734936 2.438593
vt -0.315609 -1.141575
vt -0.379409 -1.228630
vt -0.315609 -0.326442
vt -0.379407 -0.239387
vt 0.709664 1.101151
vt 1.734936 1.101151
vt 1.734936 -0.500533
vt 1.671138 -0.587587
vt 1.734936 0.314599
vt 1.671138 0.401655
vt 2.760208 2.438593
vt -1.168183 -0.239387
vt -1.168183 -1.228630
vt 2.760208 1.101151
vt 1.734938 1.101151
vt 2.760208 -0.674644
vt 2.696413 -0.587587
vt 2.760208 -1.489775
vt 2.696413 -1.576830
vt 0.709661 3.076540
vt -0.225387 3.076540
vt -1.340882 0.662801
vt -1.340882 -0.239387
vt -0.405834 0.749855
vt -1.250660 0.749855
vt -0.315609 -0.239387
vt -0.315609 0.662801
vt -0.225387 2.087298
vt 0.709661 2.087298
vt 2.760208 0.401655
vt 1.825159 0.401655
vt -0.225385 -0.239387
vt 0.709663 -0.239387
vt -0.315609 -0.152333
vt 0.709664 0.749855
vt -0.225385 0.749855
vt 1.825159 -0.587587
vt 2.760208 -0.587587
vt 1.734936 0.314601
vt 1.734936 -0.500535
vt -0.315607 -0.326440
vt -0.315607 -1.228630
vt 0.709664 1.739098
vt -0.225385 1.739098
vt 0.709663 0.749855
vt 0.709664 -1.228630
vt 0.709664 -0.326440
vt 0.619441 -0.239387
vt -0.315609 0.749855
vt -0.315611 3.076540
vt -1.250660 3.076540
vt -1.340882 2.989486
vt -1.340882 2.174350
vt -1.250660 2.087298
vt -0.315611 2.087298
vt -0.315609 1.739098
vt -1.250660 1.739098
vt -1.340882 1.652044
vt -1.340882 0.836910
vt 1.644709 3.076540
vt 0.799886 3.076540
s 1
usemtl Material.032
f 13/1/1 14/2/2 5/3/3 2/4/4
f 18/5/5 19/6/6 15/7/7 12/8/8
f 26/9/9 36/10/10 31/11/11 21/12/12
f 8/13/13 9/14/14 20/15/15 17/16/16
f 3/17/17 4/18/18 10/19/19 7/20/20
f 33/21/1 34/22/2 25/23/3 22/24/4
f 38/25/5 39/26/6 35/27/7 32/28/8
f 46/29/12 41/30/21 51/31/22 56/32/11
f 28/33/23 29/34/14 40/35/15 37/36/24
f 23/37/17 24/38/18 30/39/19 27/40/20
f 52/41/16 43/42/13 44/43/14 55/44/15
f 57/45/8 53/46/5 54/47/6 60/48/7
f 66/49/25 61/50/9 71/51/10 76/52/26
f 47/53/4 58/54/1 59/55/2 50/56/3
f 42/57/20 48/58/17 49/52/18 45/51/19
f 72/59/16 63/60/13 64/61/14 75/62/15
f 77/63/8 73/64/5 74/65/6 80/66/7
f 67/67/4 78/68/1 79/69/2 70/70/3
f 62/71/20 68/72/17 69/73/18 65/74/19
f 1/75/12 2/76/4 3/17/17
f 6/77/9 7/20/20 8/78/13
f 11/79/11 12/8/8 13/80/1
f 16/81/10 17/82/16 18/5/5
f 21/12/12 22/83/4 23/37/17
f 26/9/9 27/40/20 28/84/23
f 31/85/11 32/28/8 33/86/1
f 36/87/10 37/88/24 38/25/5
f 41/30/21 42/57/20 43/89/13
f 46/29/12 47/78/4 48/58/17
f 51/6/22 52/90/16 53/46/5
f 56/7/11 57/45/8 58/91/1
f 61/50/9 62/71/20 63/92/13
f 66/49/25 67/93/4 68/72/17
f 71/94/10 72/95/16 73/64/5
f 76/96/26 77/63/8 78/97/1
f 6/77/9 1/75/12 3/17/17 7/20/20
f 2/4/4 5/3/3 4/98/18 3/99/17
f 9/14/14 8/13/13 7/100/20 10/101/19
f 16/102/10 6/103/9 8/13/13 17/16/16
f 19/104/6 18/105/5 17/16/16 20/15/15
f 11/79/11 16/81/10 18/5/5 12/8/8
f 14/2/2 13/1/1 12/106/8 15/107/7
f 1/70/12 11/69/11 13/1/1 2/4/4
f 26/9/9 21/12/12 23/37/17 27/40/20
f 22/24/4 25/23/3 24/108/18 23/109/17
f 29/34/14 28/33/23 27/110/20 30/111/19
f 36/105/10 26/112/9 28/33/23 37/36/24
f 39/113/6 38/114/5 37/36/24 40/35/15
f 31/85/11 36/87/10 38/25/5 32/28/8
f 34/22/2 33/21/1 32/115/8 35/116/7
f 21/117/12 31/118/11 33/21/1 22/24/4
f 48/58/17 42/57/20 41/30/21 46/29/12
f 42/119/20 45/120/19 44/43/14 43/42/13
f 49/121/18 48/122/17 47/53/4 50/56/3
f 58/54/1 47/53/4 46/62/12 56/61/11
f 59/55/2 58/54/1 57/114/8 60/123/7
f 53/46/5 57/45/8 56/7/11 51/6/22
f 54/124/6 53/125/5 52/41/16 55/44/15
f 43/42/13 52/41/16 51/126/22 41/110/21
f 68/72/17 62/71/20 61/50/9 66/49/25
f 62/103/20 65/127/19 64/61/14 63/60/13
f 69/128/18 68/129/17 67/67/4 70/70/3
f 78/68/1 67/67/4 66/130/25 76/131/26
f 79/69/2 78/68/1 77/132/8 80/133/7
f 73/64/5 77/63/8 76/96/26 71/94/10
f 74/134/6 73/135/5 72/59/16 75/62/15
f 63/60/13 72/59/16 71/136/10 61/137/9
f 6/77/9 16/138/10 11/139/11 1/75/12
