# Blender 4.0.2
# www.blender.org
mtllib walls.mtl
o walls
v 1.587324 0.000615 4.426419
v 1.587324 2.945418 4.426419
v 1.587324 0.000615 -2.510308
v 1.587324 2.945418 -2.510308
v 5.998700 0.000615 4.426419
v 5.998700 2.945418 4.426419
v 5.998700 0.000615 -2.510308
v 5.998700 2.945418 -2.510308
v 1.758999 0.000615 4.254744
v 1.758999 2.945418 4.254744
v 1.758999 0.000615 -2.338633
v 1.758999 2.945418 -2.338633
v 5.827025 0.000615 4.254744
v 5.827025 2.945418 4.254744
v 5.827025 0.000615 -2.338633
v 5.827025 2.945418 -2.338633
v 3.340232 2.040308 4.426419
v 4.140232 2.040308 4.426419
v 3.340232 0.059308 4.426419
v 4.140232 0.059308 4.426419
v 3.340232 0.059308 4.254744
v 4.140232 0.059308 4.254744
v 3.340232 2.040308 4.254744
v 4.140232 2.040308 4.254744
vn -1.0000 -0.0000 -0.0000
vn -0.0000 -0.0000 -1.0000
vn 1.0000 -0.0000 -0.0000
vn -0.0000 -0.0000 1.0000
vn -0.0000 -1.0000 -0.0000
vn -0.0000 1.0000 -0.0000
vt 0.973666 -0.890437
vt 0.038409 0.044820
vt 0.038409 -0.890437
vt 0.973666 0.044820
vt 0.038409 0.980077
vt 0.973666 0.980077
vt 0.038409 1.915334
vt 0.973666 1.915334
vt 0.973666 2.850591
vt 0.686207 2.309348
vt 0.038409 2.850591
vt 0.057050 2.309348
vt 0.057050 2.478956
vt 0.686207 2.487058
vt 0.057050 2.303135
vt 0.057050 2.487058
vt 0.625000 0.158967
vt 0.375000 0.178475
vt 0.625000 0.178475
vt 0.375000 0.591033
vt 0.625000 0.571525
vt 0.375000 0.571525
vt 0.125000 0.591033
vt 0.125000 0.571525
vt 0.875000 0.591033
vt 0.625000 0.591033
vt 0.686207 2.478956
vt 0.686207 2.303135
vt 0.375000 0.158967
vt 0.875000 0.571525
s 0
usemtl Material.025
f 2/1/1 3/2/1 1/3/1
f 4/4/2 7/5/2 3/2/2
f 8/6/3 5/7/3 7/5/3
f 6/8/4 2/9/4 18/10/4
f 1/11/4 20/12/4 19/13/4
f 11/2/3 10/1/3 9/3/3
f 15/5/4 12/4/4 11/2/4
f 13/7/1 16/6/1 15/5/1
f 10/9/2 14/8/2 23/14/2
f 22/15/2 9/11/2 21/16/2
f 3/2/5 9/3/5 1/3/5
f 2/1/6 12/4/6 4/4/6
f 7/5/5 11/2/5 3/2/5
f 4/4/6 16/6/6 8/6/6
f 5/7/5 15/5/5 7/5/5
f 8/6/6 14/8/6 6/8/6
f 1/11/5 13/7/5 5/7/5
f 6/8/6 10/9/6 2/9/6
f 17/17/3 21/18/3 23/19/3
f 20/20/1 24/21/1 22/22/1
f 19/23/6 22/22/6 21/24/6
f 17/25/5 24/21/5 18/26/5
f 2/1/1 4/4/1 3/2/1
f 4/4/2 8/6/2 7/5/2
f 8/6/3 6/8/3 5/7/3
f 20/12/4 5/7/4 6/8/4
f 2/9/4 1/11/4 19/13/4
f 2/9/4 19/13/4 17/27/4
f 18/10/4 20/12/4 6/8/4
f 2/9/4 17/27/4 18/10/4
f 1/11/4 5/7/4 20/12/4
f 11/2/3 12/4/3 10/1/3
f 15/5/4 16/6/4 12/4/4
f 13/7/1 14/8/1 16/6/1
f 23/14/2 21/16/2 9/11/2
f 14/8/2 13/7/2 22/15/2
f 14/8/2 22/15/2 24/28/2
f 23/14/2 9/11/2 10/9/2
f 14/8/2 24/28/2 23/14/2
f 22/15/2 13/7/2 9/11/2
f 3/2/5 11/2/5 9/3/5
f 2/1/6 10/1/6 12/4/6
f 7/5/5 15/5/5 11/2/5
f 4/4/6 12/4/6 16/6/6
f 5/7/5 13/7/5 15/5/5
f 8/6/6 16/6/6 14/8/6
f 1/11/5 9/11/5 13/7/5
f 6/8/6 14/8/6 10/9/6
f 17/17/3 19/29/3 21/18/3
f 20/20/1 18/26/1 24/21/1
f 19/23/6 20/20/6 22/22/6
f 17/25/5 23/30/5 24/21/5
